<mxfile host="Electron" agent="Mozilla/5.0 (Windows NT 10.0; Win64; x64) AppleWebKit/537.36 (KHTML, like Gecko) draw.io/24.7.8 Chrome/128.0.6613.36 Electron/32.0.1 Safari/537.36" version="24.7.8" pages="2">
  <diagram id="l83zGOxQKVgx15SVLfQ4" name="Página-1">
    <mxGraphModel>
      <root>
        <mxCell id="0" />
        <mxCell id="1" parent="0" />
      </root>
    </mxGraphModel>
  </diagram>
  <diagram id="l5wStU77TLL1HBFd_Ass" name="Página-2">
    <mxGraphModel dx="1114" dy="709" grid="1" gridSize="10" guides="1" tooltips="1" connect="1" arrows="1" fold="1" page="1" pageScale="1" pageWidth="827" pageHeight="1169" math="0" shadow="0">
      <root>
        <mxCell id="0" />
        <mxCell id="1" parent="0" />
        <mxCell id="CSwR3qzC-3UBb3sJLpW1-3" value="" style="image;aspect=fixed;html=1;points=[];align=center;fontSize=12;image=img/lib/azure2/databases/Data_Factory.svg;" vertex="1" parent="1">
          <mxGeometry x="80" y="270" width="68" height="68" as="geometry" />
        </mxCell>
        <mxCell id="CSwR3qzC-3UBb3sJLpW1-4" value="" style="image;aspect=fixed;html=1;points=[];align=center;fontSize=12;image=img/lib/azure2/storage/Data_Lake_Storage_Gen1.svg;" vertex="1" parent="1">
          <mxGeometry x="380.8" y="420" width="64" height="52" as="geometry" />
        </mxCell>
        <mxCell id="CSwR3qzC-3UBb3sJLpW1-5" value="" style="image;aspect=fixed;html=1;points=[];align=center;fontSize=12;image=img/lib/azure2/analytics/Azure_Databricks.svg;" vertex="1" parent="1">
          <mxGeometry x="383.4" y="90" width="62.8" height="68" as="geometry" />
        </mxCell>
        <mxCell id="CSwR3qzC-3UBb3sJLpW1-26" style="edgeStyle=orthogonalEdgeStyle;rounded=0;orthogonalLoop=1;jettySize=auto;html=1;exitX=1;exitY=0.5;exitDx=0;exitDy=0;entryX=0;entryY=0.5;entryDx=0;entryDy=0;" edge="1" parent="1" source="CSwR3qzC-3UBb3sJLpW1-6" target="CSwR3qzC-3UBb3sJLpW1-7">
          <mxGeometry relative="1" as="geometry" />
        </mxCell>
        <mxCell id="CSwR3qzC-3UBb3sJLpW1-6" value="" style="shape=cylinder;whiteSpace=wrap;html=1;boundedLbl=1;backgroundOutline=1;" vertex="1" parent="1">
          <mxGeometry x="300" y="258" width="60" height="80" as="geometry" />
        </mxCell>
        <mxCell id="CSwR3qzC-3UBb3sJLpW1-27" style="edgeStyle=orthogonalEdgeStyle;rounded=0;orthogonalLoop=1;jettySize=auto;html=1;exitX=1;exitY=0.5;exitDx=0;exitDy=0;entryX=0;entryY=0.5;entryDx=0;entryDy=0;" edge="1" parent="1" source="CSwR3qzC-3UBb3sJLpW1-7" target="CSwR3qzC-3UBb3sJLpW1-8">
          <mxGeometry relative="1" as="geometry" />
        </mxCell>
        <mxCell id="CSwR3qzC-3UBb3sJLpW1-7" value="" style="shape=cylinder;whiteSpace=wrap;html=1;boundedLbl=1;backgroundOutline=1;" vertex="1" parent="1">
          <mxGeometry x="384.8" y="258" width="60" height="80" as="geometry" />
        </mxCell>
        <mxCell id="CSwR3qzC-3UBb3sJLpW1-8" value="" style="shape=cylinder;whiteSpace=wrap;html=1;boundedLbl=1;backgroundOutline=1;" vertex="1" parent="1">
          <mxGeometry x="470" y="258" width="60" height="80" as="geometry" />
        </mxCell>
        <mxCell id="CSwR3qzC-3UBb3sJLpW1-9" value="" style="image;aspect=fixed;html=1;points=[];align=center;fontSize=12;image=img/lib/azure2/analytics/Power_BI_Embedded.svg;" vertex="1" parent="1">
          <mxGeometry x="670" y="90" width="51" height="68" as="geometry" />
        </mxCell>
        <mxCell id="CSwR3qzC-3UBb3sJLpW1-10" value="" style="sketch=0;pointerEvents=1;shadow=0;dashed=0;html=1;strokeColor=none;fillColor=#505050;labelPosition=center;verticalLabelPosition=bottom;verticalAlign=top;outlineConnect=0;align=center;shape=mxgraph.office.services.excel_services;" vertex="1" parent="1">
          <mxGeometry x="80" y="170" width="60" height="49" as="geometry" />
        </mxCell>
        <mxCell id="CSwR3qzC-3UBb3sJLpW1-11" value="Databricks" style="text;html=1;align=center;verticalAlign=middle;whiteSpace=wrap;rounded=0;" vertex="1" parent="1">
          <mxGeometry x="386.2" y="168" width="60" height="30" as="geometry" />
        </mxCell>
        <mxCell id="CSwR3qzC-3UBb3sJLpW1-12" value="Bronze" style="text;html=1;align=center;verticalAlign=middle;whiteSpace=wrap;rounded=0;" vertex="1" parent="1">
          <mxGeometry x="300" y="350" width="60" height="30" as="geometry" />
        </mxCell>
        <mxCell id="CSwR3qzC-3UBb3sJLpW1-13" value="Silver" style="text;html=1;align=center;verticalAlign=middle;whiteSpace=wrap;rounded=0;" vertex="1" parent="1">
          <mxGeometry x="384.8" y="350" width="60" height="30" as="geometry" />
        </mxCell>
        <mxCell id="CSwR3qzC-3UBb3sJLpW1-14" value="Gold" style="text;html=1;align=center;verticalAlign=middle;resizable=0;points=[];autosize=1;strokeColor=none;fillColor=none;" vertex="1" parent="1">
          <mxGeometry x="465" y="348" width="50" height="30" as="geometry" />
        </mxCell>
        <mxCell id="CSwR3qzC-3UBb3sJLpW1-15" value="Data Lake&amp;nbsp;" style="text;html=1;align=center;verticalAlign=middle;resizable=0;points=[];autosize=1;strokeColor=none;fillColor=none;" vertex="1" parent="1">
          <mxGeometry x="370" y="478" width="80" height="30" as="geometry" />
        </mxCell>
        <mxCell id="CSwR3qzC-3UBb3sJLpW1-18" value="Data Factory" style="text;html=1;align=center;verticalAlign=middle;whiteSpace=wrap;rounded=0;" vertex="1" parent="1">
          <mxGeometry x="84" y="360" width="60" height="30" as="geometry" />
        </mxCell>
        <mxCell id="CSwR3qzC-3UBb3sJLpW1-19" value="Fuentes" style="text;html=1;align=center;verticalAlign=middle;whiteSpace=wrap;rounded=0;" vertex="1" parent="1">
          <mxGeometry x="84" y="228" width="60" height="30" as="geometry" />
        </mxCell>
        <mxCell id="CSwR3qzC-3UBb3sJLpW1-20" value="POWER BI" style="text;html=1;align=center;verticalAlign=middle;whiteSpace=wrap;rounded=0;" vertex="1" parent="1">
          <mxGeometry x="670" y="179.5" width="60" height="30" as="geometry" />
        </mxCell>
        <mxCell id="CSwR3qzC-3UBb3sJLpW1-24" style="edgeStyle=orthogonalEdgeStyle;rounded=0;orthogonalLoop=1;jettySize=auto;html=1;" edge="1" parent="1" source="CSwR3qzC-3UBb3sJLpW1-21">
          <mxGeometry relative="1" as="geometry">
            <mxPoint x="280" y="245" as="targetPoint" />
          </mxGeometry>
        </mxCell>
        <mxCell id="CSwR3qzC-3UBb3sJLpW1-21" value="&lt;h1 style=&quot;margin-top: 0px;&quot;&gt;Ingesta de Datos&lt;/h1&gt;" style="text;html=1;whiteSpace=wrap;overflow=hidden;rounded=0;" vertex="1" parent="1">
          <mxGeometry x="40" y="50" width="180" height="390" as="geometry" />
        </mxCell>
        <mxCell id="CSwR3qzC-3UBb3sJLpW1-25" style="edgeStyle=orthogonalEdgeStyle;rounded=0;orthogonalLoop=1;jettySize=auto;html=1;entryX=0;entryY=0.5;entryDx=0;entryDy=0;" edge="1" parent="1" source="CSwR3qzC-3UBb3sJLpW1-22" target="CSwR3qzC-3UBb3sJLpW1-23">
          <mxGeometry relative="1" as="geometry" />
        </mxCell>
        <mxCell id="CSwR3qzC-3UBb3sJLpW1-22" value="&lt;h1 style=&quot;margin-top: 0px;&quot;&gt;Proceso ETL&lt;/h1&gt;" style="text;html=1;whiteSpace=wrap;overflow=hidden;rounded=0;" vertex="1" parent="1">
          <mxGeometry x="290" y="40" width="260" height="480" as="geometry" />
        </mxCell>
        <mxCell id="CSwR3qzC-3UBb3sJLpW1-23" value="&lt;h1 style=&quot;margin-top: 0px;&quot;&gt;Visualizacion&lt;/h1&gt;" style="text;html=1;whiteSpace=wrap;overflow=hidden;rounded=0;" vertex="1" parent="1">
          <mxGeometry x="600" y="30" width="210" height="490" as="geometry" />
        </mxCell>
        <mxCell id="CSwR3qzC-3UBb3sJLpW1-28" style="edgeStyle=orthogonalEdgeStyle;rounded=0;orthogonalLoop=1;jettySize=auto;html=1;entryX=0.572;entryY=-0.017;entryDx=0;entryDy=0;entryPerimeter=0;" edge="1" parent="1" source="CSwR3qzC-3UBb3sJLpW1-13" target="CSwR3qzC-3UBb3sJLpW1-4">
          <mxGeometry relative="1" as="geometry" />
        </mxCell>
      </root>
    </mxGraphModel>
  </diagram>
</mxfile>
